<?xml version="1.0" encoding="iso-8859-1"?>
<!-- Uploaded to: SVG Repo, www.svgrepo.com, Generator: SVG Repo Mixer Tools -->
<svg fill="#000000" height="800px" width="800px" version="1.1" id="Layer_1" xmlns="http://www.w3.org/2000/svg" xmlns:xlink="http://www.w3.org/1999/xlink" 
	 viewBox="0 0 463 463" xml:space="preserve">
<g transform="translate(0 -540.36)">
	<g>
		<g>
			<path d="M357.35,540.36h-253c-21.9,0-40.4,18.3-40.4,39.9v382c0,22.7,18.1,41.1,40.4,41.1h253c23,0,41.7-18.4,41.7-41.1v-382
				C399.05,558.26,380.35,540.36,357.35,540.36z M384.15,962.26c0,14.6-11.8,26.1-26.7,26.1h-253c-13.8,0-25.4-12-25.4-26.1v-382
				c0-13.3,11.9-24.9,25.4-24.9h253c14.5,0,26.7,11.4,26.7,24.9V962.26z"/>
			<circle cx="184.45" cy="962.858" r="7.5"/>
			<path d="M155.65,955.36h-34.2c-5,0-8.9-4.3-8.9-9.9v-32.4c0-4.1-3.4-7.5-7.5-7.5c-4.1,0-7.5,3.4-7.4,7.5v32.4
				c0,13.7,10.7,24.9,23.9,24.9h34.1c4.1,0,7.5-3.4,7.5-7.5S159.75,955.36,155.65,955.36z"/>
			<circle cx="278.65" cy="580.858" r="7.5"/>
			<path d="M341.55,573.36h-34.1c-4.1,0-7.5,3.4-7.5,7.5s3.4,7.5,7.5,7.5h34.2c5,0,8.9,4.3,8.9,9.9v32.4c0,4.1,3.4,7.5,7.5,7.5
				c4.1,0,7.5-3.4,7.4-7.5v-32.4C365.45,584.56,354.75,573.36,341.55,573.36z"/>
			<path d="M280.95,705.16l-0.1-0.1c-9.2-9-24.1-9-33.3,0l-16.1,15.8l-15-15.7c-0.1-0.1-0.1-0.1-0.2-0.2c-9.3-9.1-25.4-9.1-34.6,0
				l-0.1,0.1l-26.5,27.3c-8.6,8.6-9.4,21.1-2.1,31.9c0.1,0.2,0.3,0.4,0.4,0.6l59.4,72.2c0.1,0,0.1,0.1,0.1,0.1
				c4.5,5.3,11.2,8.3,18.4,8.3h0c7.3,0,14-3,18.4-8.3c0.1,0,0.1-0.1,0.1-0.1l59.4-72.1c8.5-10.1,7.8-23.1-1.7-32.5L280.95,705.16z
				 M297.75,755.36c-0.1,0-0.1,0.1-0.1,0.1l-59.4,72.1c-1.6,1.8-4.1,2.9-6.9,2.9c-2.8,0-5.3-1-6.9-2.9v0l-59.2-71.9
				c-1.6-2.4-4.2-8,0.5-12.6l0.1-0.1l26.5-27.3c3.4-3.3,10-3.3,13.4,0l20.1,21.1c1.4,1.4,3.3,2.3,5.3,2.3s4-0.8,5.4-2.2l21.6-21
				c3.4-3.4,8.8-3.4,12.2-0.1l26.5,27.3l0.1,0.1C299.25,745.36,302.35,749.96,297.75,755.36z"/>
		</g>
	</g>
</g>
</svg>